<?xml version="1.0" standalone="no"?>
<!DOCTYPE svg PUBLIC "-//W3C//DTD SVG 20010904//EN"
 "http://www.w3.org/TR/2001/REC-SVG-20010904/DTD/svg10.dtd">
<svg version="1.0" xmlns="http://www.w3.org/2000/svg"
 width="512.000000pt" height="512.000000pt" viewBox="0 0 512.000000 512.000000"
 preserveAspectRatio="xMidYMid meet">
<metadata>
Created by potrace 1.14, written by Peter Selinger 2001-2017
</metadata>
<g transform="translate(0.000000,512.000000) scale(0.100000,-0.100000)"
fill="#000000" stroke="none">
<path d="M2147 5049 c-116 -18 -227 -105 -281 -219 l-31 -65 -3 -311 -3 -311
23 -26 c37 -40 73 -43 108 -8 l30 29 0 277 c0 302 5 343 52 399 104 126 302
98 370 -53 18 -40 20 -65 20 -260 0 -119 -1 -225 -1 -236 -1 -18 -8 -21 -49
-22 -105 -4 -206 -83 -236 -184 -23 -75 -23 -651 -1 -726 20 -67 80 -134 147
-163 52 -22 61 -23 409 -23 422 -1 427 0 509 82 78 78 80 93 80 476 0 360 -5
387 -82 463 -68 68 -105 76 -378 76 l-235 1 -2 242 c-1 274 -8 314 -70 403
-85 122 -228 182 -376 159z"/>
<path d="M1247 4978 c-48 -42 -37 -93 28 -138 24 -16 46 -30 48 -30 2 0 44
-23 92 -51 70 -40 93 -49 116 -44 53 12 75 61 55 121 -6 17 -256 158 -287 162
-17 2 -36 -5 -52 -20z"/>
<path d="M3675 4929 c-66 -39 -128 -78 -137 -86 -28 -25 -23 -79 8 -108 33
-31 77 -26 138 16 24 16 47 29 50 29 4 0 32 16 62 35 30 19 59 35 64 35 6 0
18 15 27 34 13 29 14 40 4 64 -12 29 -47 52 -79 52 -9 0 -71 -32 -137 -71z"/>
<path d="M1095 4350 c-56 -28 -59 -107 -6 -134 21 -11 63 -14 179 -13 143 2
152 3 172 25 29 31 24 88 -11 114 -21 16 -45 19 -165 21 -107 2 -146 -1 -169
-13z"/>
<path d="M3688 4342 c-19 -16 -28 -33 -28 -52 0 -77 26 -88 210 -85 80 1 148
3 151 4 3 0 15 10 27 21 31 29 29 80 -3 110 -23 22 -32 23 -177 24 -146 1
-154 0 -180 -22z"/>
<path d="M1375 3780 c-66 -38 -128 -80 -138 -92 -36 -43 1 -118 59 -120 42 -1
280 136 298 171 15 32 10 59 -17 89 -34 37 -70 28 -202 -48z"/>
<path d="M3562 3843 c-31 -12 -47 -80 -27 -113 6 -10 111 -80 120 -80 3 0 33
-18 69 -39 70 -43 88 -49 129 -38 36 10 59 59 45 96 -11 30 -22 38 -160 119
-101 58 -139 70 -176 55z"/>
<path d="M950 3236 c-132 -43 -213 -155 -212 -293 0 -77 21 -119 161 -333 56
-85 105 -162 108 -170 4 -8 11 -19 16 -25 4 -5 37 -55 72 -110 132 -207 218
-342 263 -412 26 -40 81 -126 122 -190 41 -65 78 -119 82 -121 4 -2 8 -8 8
-12 0 -5 28 -53 63 -107 124 -193 120 -166 121 -803 1 -495 2 -538 19 -563 9
-15 23 -28 30 -28 6 -1 345 -2 752 -3 777 -2 781 -2 801 41 4 10 8 254 9 543
2 511 4 558 24 628 17 57 94 188 242 410 16 24 29 46 29 49 0 3 10 20 23 37
13 17 88 132 167 256 79 124 167 261 195 305 219 339 307 479 320 512 9 22 17
67 17 105 1 116 -63 216 -172 267 -113 53 -264 23 -342 -69 -18 -21 -124 -182
-235 -357 -112 -176 -226 -345 -255 -377 -95 -106 -245 -203 -370 -240 l-46
-13 33 52 c56 87 78 166 78 275 1 157 -50 275 -162 381 -120 112 -284 160
-446 130 -202 -38 -377 -212 -414 -411 -22 -126 9 -282 77 -383 l30 -45 -27 8
c-207 63 -365 187 -493 385 -78 122 -102 160 -113 177 -76 132 -250 392 -283
426 -24 24 -64 53 -90 65 -54 24 -149 30 -202 13z"/>
</g>
</svg>
